<?xml version="1.0" standalone="no"?>
<!DOCTYPE svg PUBLIC "-//W3C//DTD SVG 20010904//EN"
 "http://www.w3.org/TR/2001/REC-SVG-20010904/DTD/svg10.dtd">
<svg version="1.0" xmlns="http://www.w3.org/2000/svg"
 width="1120.000000pt" height="1120.000000pt" viewBox="0 0 1120.000000 1120.000000"
 preserveAspectRatio="xMidYMid meet">

<g transform="translate(0.000000,1120.000000) scale(0.100000,-0.100000)"
fill="red" stroke="white">
<path d="M6175 9303 c-284 -35 -464 -85 -694 -194 -384 -181 -698 -472 -905
-839 -73 -128 -128 -268 -194 -490 -6 -21 -25 -31 -127 -66 -317 -109 -501
-221 -778 -474 -81 -74 -234 -272 -318 -412 -114 -191 -182 -361 -221 -559
l-21 -106 -206 1 c-216 1 -288 -8 -441 -55 -271 -84 -530 -296 -678 -557 -23
-41 -42 -76 -42 -78 0 -3 -13 -31 -28 -62 -27 -54 -59 -148 -81 -237 -10 -36
-17 -43 -83 -77 -131 -67 -267 -176 -380 -302 -95 -108 -101 -116 -146 -184
-53 -81 -56 -87 -103 -182 -192 -393 -225 -753 -108 -1168 22 -79 84 -225 117
-282 12 -19 29 -48 38 -65 23 -41 122 -183 143 -204 9 -10 40 -43 69 -76 67
-74 193 -180 300 -251 163 -108 382 -194 617 -241 86 -17 235 -18 3040 -18
2843 0 2953 1 3040 19 168 35 395 125 531 212 194 123 398 320 505 489 95 149
144 249 191 390 24 72 67 286 68 335 0 19 4 40 8 46 4 6 39 14 77 18 326 33
687 219 936 483 211 225 358 519 409 818 22 130 27 378 10 498 -32 218 -133
492 -244 656 -20 29 -36 56 -36 60 0 3 -13 20 -28 38 -15 17 -36 44 -47 59
-85 116 -240 247 -434 367 l-85 52 -28 98 c-52 182 -127 328 -235 459 -266
321 -635 478 -1034 439 -179 -17 -166 -21 -179 47 -17 91 -59 242 -86 308 -13
33 -24 64 -24 68 0 21 -121 244 -178 330 -37 54 -74 109 -83 122 -9 13 -56 67
-105 120 -327 354 -756 577 -1229 639 -105 14 -406 19 -490 8z"/>
</g>
</svg>
